<svg xmlns="http://www.w3.org/2000/svg" viewBox="0 0 79.48 91.77"><defs><style>.cls-1{fill:#22231e;}</style></defs><g id="Layer_2" data-name="Layer 2"><g id="OBJECTS"><polygon class="cls-1" points="46.66 11.99 46.66 4 39.74 0 32.82 4 32.82 11.99 39.74 15.99 46.66 11.99"/><polygon class="cls-1" points="63.23 21.55 63.23 13.56 56.3 9.56 49.38 13.56 49.38 21.55 56.3 25.55 63.23 21.55"/><polygon class="cls-1" points="79.48 30.94 79.48 22.94 72.56 18.95 65.63 22.94 65.63 30.94 72.56 34.94 79.48 30.94"/><polygon class="cls-1" points="79.48 49.88 79.48 41.89 72.56 37.89 65.63 41.89 65.63 49.88 72.56 53.88 79.48 49.88"/><polygon class="cls-1" points="61.58 39.91 61.58 33.81 56.3 30.77 51.02 33.81 51.02 39.91 56.3 42.96 61.58 39.91"/><polygon class="cls-1" points="61.58 58.85 61.58 52.76 56.3 49.71 51.02 52.76 51.02 58.85 56.3 61.9 61.58 58.85"/><polygon class="cls-1" points="25.66 39.25 25.66 34.47 21.51 32.08 17.37 34.47 17.37 39.25 21.51 41.65 25.66 39.25"/><polygon class="cls-1" points="25.66 58.2 25.66 53.41 21.51 51.02 17.37 53.41 17.37 58.2 21.51 60.59 25.66 58.2"/><polygon class="cls-1" points="6.92 47.89 6.92 43.89 3.46 41.89 0 43.89 0 47.89 3.46 49.88 6.92 47.89"/><polygon class="cls-1" points="79.48 68.83 79.48 60.84 72.56 56.84 65.63 60.84 65.63 68.83 72.56 72.83 79.48 68.83"/><polygon class="cls-1" points="45.63 30.21 45.63 23.68 39.97 20.41 34.31 23.68 34.31 30.21 39.97 33.47 45.63 30.21"/><polygon class="cls-1" points="45.63 68.1 45.63 61.57 39.97 58.3 34.31 61.57 34.31 68.1 39.97 71.36 45.63 68.1"/><polygon class="cls-1" points="44.72 48.63 44.72 43.15 39.97 40.41 35.23 43.15 35.23 48.63 39.97 51.37 44.72 48.63"/><polygon class="cls-1" points="63.23 78.22 63.23 70.22 56.3 66.22 49.38 70.22 49.38 78.22 56.3 82.21 63.23 78.22"/><polygon class="cls-1" points="27.19 20.36 27.19 13.8 21.51 10.52 15.83 13.8 15.83 20.36 21.51 23.64 27.19 20.36"/><polygon class="cls-1" points="6.42 25.9 6.42 22.19 3.21 20.34 0 22.19 0 25.9 3.21 27.75 6.42 25.9"/><polygon class="cls-1" points="46.66 87.78 46.66 79.78 39.74 75.78 32.82 79.78 32.82 87.78 39.74 91.77 46.66 87.78"/><polygon class="cls-1" points="27.19 77.97 27.19 71.41 21.51 68.13 15.83 71.41 15.83 77.97 21.51 81.25 27.19 77.97"/><polygon class="cls-1" points="9.03 69.5 9.03 64.29 4.52 61.68 0 64.29 0 69.5 4.52 72.11 9.03 69.5"/></g></g></svg>