<svg xmlns="http://www.w3.org/2000/svg" viewBox="0 0 192.64 180.77"><g id="Layer_2" data-name="Layer 2"><g id="OBJECTS"><path d="M187.25,39.65c-1.17-6.26-4.44-12.76-7-18.51-2.25-5-7.32-10.22-11.7-13.45-4.65-3.42-10-4.48-15.75-4-4.94.39-8.3,3.49-11.35,7.17-1.44-1.48-3-2.48-4.7-2.41-3.33.14-7.11,3.21-9.15,6.31-3.1-5.14-9.43-3.79-14.11-1.35,1.28-2.94,2.1-6.12-1.4-7.68-5-2.25-7.06,2.71-10.1,5.49-1.51,1.38-10.85,8.37-13.1,5.32-1.4-1.89-.62-4.88-2.29-6.92-2.54-3.1-5.22-2.31-7.38.08C78.61,8.8,78,7.91,77.49,7c-1.74-3-3.33-5.85-7-6.76a9.48,9.48,0,0,0-9.17,3.31C59.5,6,59.19,9.12,59.65,12.29,58,10.86,56.77,9.66,54.35,10a9.79,9.79,0,0,0-4.93,2.57C49,9.59,45.62,8.67,43.1,7.77c-4.28-1.53-7-1.27-11.19.13-9.7,3.26-18.07,11.2-23.17,20a5.21,5.21,0,0,0-.59,3c-1.24,1.07-2.49,2.17-2.51,3.94a6.22,6.22,0,0,0,.84,3.23,34.05,34.05,0,0,0-1.72,3.19A52.25,52.25,0,0,0,3.2,47.8,59.26,59.26,0,0,0,1.49,61.05C1.36,70.57-.64,79.65.21,89.22c.7,7.86,0,15.48,1.89,23.25C3.21,117,4.21,121.53,5.55,126c.65,2.2.64,4.43,2.6,5.86a1.1,1.1,0,0,0,1,.17,78.76,78.76,0,0,0-.78,12.37c.2,8.66.22,17,4.25,24.86,2.95,5.8,8.31,7.44,14.52,7.38a1.6,1.6,0,0,0,.6-.12c2.41.7,6,1.77,6.74,1.84,3.5.36,7.16-.49,10.69-.5,8.75,0,17.51.43,26.22.91,4.08.22,8.3,1.22,12.39,1.08,4.37-.15,8.69-.51,13.1-.5,7.91,0,16-1,23.89-.19,3.45.35,6.7-.51,10.16-.5s6.9.65,10.36.24c4.25-.51,8.54.45,12.86.45h0c-.1,0-.13.78,0,1.26.07.29.49.08.5-.2a12.38,12.38,0,0,1,.19-1.49c4.08.1,8.62,1,12.58.44a11.11,11.11,0,0,0,9-8.95c.37-1.81.51-3.75.77-5.49.5-3.19,2.08-6.32,1.93-9.53,2.6-7.56,2.19-15.69,1.87-23.67-.22-5.75-.58-11.46-.79-17.18a1,1,0,0,0,.94-.48c3.28-5.2,5.14-11.11,7.44-16.82,2.43-6,3.42-12.62,3.87-19.06C193.41,65.08,189.63,52.35,187.25,39.65ZM115.51,14.83c2.09-1.06,5.69-2.24,7.9-1l3.15,7.74A6.41,6.41,0,0,1,124.08,26a25.36,25.36,0,0,1-8.87,5.76c-3.12,1.34-6.11,2.9-9.57,3.11-.73,0-2.31.06-4,0a64.49,64.49,0,0,0,13.53-6.37C118,26.64,123.71,22,121.77,18c-1.8-3.67-7-2.11-9.57-.55a42.23,42.23,0,0,0-3.72,2.58A28.68,28.68,0,0,1,115.51,14.83Zm-4.09,59.11c0,.16.28.23.31,0s.07-.3.1-.45c.26,1.3.49,2.61.67,3.92a12.23,12.23,0,0,0-.44,1.42c-.07.26.31.44.44.19s.1-.18.15-.27a46.75,46.75,0,0,1,.25,7.39c-.16,3.16-1.14,4.3-2.34.91a55.2,55.2,0,0,1-1.72-7.32c-1.07-5-1.59-10-2.69-15a51,51,0,0,0-4.76-13.3c-2.34-4.56-2.87-9.28-5.64-13.5a4.86,4.86,0,0,0,.33-.54c.15,0,.3.07.45.11.45.67,1.11,1.31,1.62,2a58,58,0,0,1,6.54,12.26,133.52,133.52,0,0,1,6.82,20.22A7.21,7.21,0,0,0,111.42,73.94ZM123.07,70c-.08.86-.19,1.7-.31,2.54-1.2,2.53-2.72,5-3.91,7.46s-3.41,4.28-3.83,7c.1-2.12-.13-4.33-.13-5.48a32.49,32.49,0,0,0-.54-5.74c2.82-5,5.88-9.86,9.11-14.61A82.71,82.71,0,0,1,123.07,70ZM94.89,36.48a3.14,3.14,0,0,1-2.1,2c.22-.18.44-.36.63-.55a.59.59,0,0,0-.25-1,3.84,3.84,0,0,0-2.39.09c-.37.09-.68.2-1,0a.53.53,0,0,0-.32-.56,9.27,9.27,0,0,1,2-3.53l1-.27a.55.55,0,0,0,.26.46c1.06.53,2.55.25,2.61,1.45a1.57,1.57,0,0,0-.5.84A1.15,1.15,0,0,0,94.89,36.48Zm-.64-4.43a3.29,3.29,0,0,0-.94,0,.35.35,0,0,0-.13-.19,4.32,4.32,0,0,0-.53-.26.17.17,0,0,0-.26-.14l0,0a3.82,3.82,0,0,0-2.65,0A14.41,14.41,0,0,0,88,25.05a8.27,8.27,0,0,0,2.41,1,15.2,15.2,0,0,0,7.47,0,1.91,1.91,0,0,0-.16.78c0,.29.45.38.52.07a3.31,3.31,0,0,1,.5-1.06l.83-.22-1,1.08C97.32,28.08,95.86,31.13,94.25,32.05Zm-6.11-1.33c.24.44.46.88.66,1.34a4.43,4.43,0,0,0-1.08,1.16,1.24,1.24,0,0,0-.19-.58.49.49,0,0,0,.63-.47A10,10,0,0,0,88.14,30.72Zm18.52-20.6,2.55.23c-4.2,4.12-8.34,8.56-12.14,13.11-.78,0-1.57.05-2.34,0,1.09-1.63,4.7-4.68,5.31-5.27A42.31,42.31,0,0,0,106.66,10.12Zm-9.6,24.25h0l-.27.09a2.55,2.55,0,0,0-.11-.55c2.88-1.51,4.61-5.17,7-7.29,3.08-2.73,7.9-7.17,12-8.5l2.17-.51q.91,2.2,1.84,4.39c-.11.67-1.81,2.23-2.49,2.89a23.64,23.64,0,0,1-7.07,4.42C105.85,31.24,101.44,32.79,97.06,34.37Zm13.32-19a52.18,52.18,0,0,0-7.79,7l-1,1.11-.5,0a8.74,8.74,0,0,0,.8-.83c1.49-1.83,2.81-3.79,4.22-5.67.21-.27-.25-.54-.45-.27a55.79,55.79,0,0,1-5.36,6.68l-.06.05c-.57,0-1.15,0-1.74,0,4-4,7.24-8.83,11.09-12.88a.16.16,0,0,0,.05-.15l1.42.12C111,10.37,110.56,13.75,110.38,15.33Zm-8.14-.55A54.47,54.47,0,0,1,98,18.86c-1.2,1-3.75,2.74-4.43,4.59a12.92,12.92,0,0,1-1.78-.22,2.73,2.73,0,0,0,.47-.44c.87-1,1.35-2.16,2.32-3.13.22-.22.46-.42.69-.63A30.18,30.18,0,0,0,102.24,14.78Zm-18.39-3c3.67,3.83,1.32,1.05,2.16,3.44.43,1.24.37,2.38,1.28,3.41,1.58,1.78,3.93,1.69,6,1.08a7.79,7.79,0,0,0-.69.83A17.59,17.59,0,0,1,90.8,23a7,7,0,0,1-4.2-3.44.63.63,0,0,0-1.11.07c-1.45-3.4-3.69-6.21-5.77-9.18C81.5,9.58,81.59,9.42,83.85,11.78Zm-13,8.45c-1.13-1.44-4-7.74,0-7.32,2.25.22,5.45,3.89,7.1,5.32,2.55,2.2,3.81,4.58,5.48,7.37,1.3,2.18,2.88,4.23,3.72,6.67a1.25,1.25,0,0,0-.57-.2l-1.3-.17c-.87-.54-1.88-1-2.66-1.54C78.44,27.26,74.06,24.34,70.82,20.23ZM78.65,30.3l0,0c-1-.32-2-.68-3-1.07.17-.25.36-.48.54-.72C77,29.13,77.82,29.71,78.65,30.3Zm8.44,4s0,0,0,0a1,1,0,0,0,.18-.1,4.73,4.73,0,0,0-.24,2,5.11,5.11,0,0,0,.29,1.26c-5.14,3.28-8.36,9-10.63,14.45a86.07,86.07,0,0,1-7.52,13.74c-1,1.55-2.21,3-3.31,4.49s-3,5.82-4.63,6.35c-4.28,1.34-1.35-4.82-.87-6.27,2-6,5.29-10.13,9.27-14.88C75.29,48.59,81,41.73,86.46,34.79A.5.5,0,0,0,87.09,34.32ZM64.53,3.79c7-5,11.92,6.94,15.1,11.36a22.84,22.84,0,0,1,1.47,2.3c-.59-.58-1.17-1.13-1.76-1.62C77.1,14,70.75,7.42,67.66,11.12c-3.9,4.67,1.73,11.25,4.74,14.31a26.73,26.73,0,0,0,3.33,2.79c-.2.27-.41.54-.61.82a36.21,36.21,0,0,1-7.36-4c-2.54-1.85-3.94-6.88-5-9.89C61.64,11.86,61.14,6.2,64.53,3.79ZM61.57,19c-1.77,1.12-3.63,2-5.32,3.31-2.36,1.77-4.71,3.54-7.13,5.22C47,29.05,42,30.78,42.07,34a.26.26,0,0,0,.51.07c.6-2,2.6-3,4.26-4,1.86-1.11,3.58-2.39,5.34-3.64s3.47-2.71,5.25-4c1.4-1,3-1.8,4.4-2.73.54,1.28,1.1,2.49,1.64,3.54a9.5,9.5,0,0,0,1,1.58.32.32,0,0,0-.27.3c-.3,2.15-2.14,4.37-2.93,6.41-.37,1-.68,1.93-1,2.91a5.71,5.71,0,0,0-.85-.1c-.7,0-2-.12-2.22-.94a1.12,1.12,0,0,1,0-.47,10.85,10.85,0,0,0,3.53-3.47h.07c.46,0,.6-.54.35-.83-2.14-2.51-4.74-.79-5.48,1.87a11.16,11.16,0,0,0-.63,3c-.61.53-1.21,1.08-1.84,1.59A92.59,92.59,0,0,1,43,42.18c-3.31,2-6.87,3.66-10,5.94-1.08.78-2,1.72-3,2.6-.16.13-.33.25-.5.37.53-1,1.06-2,1.57-3,.42-.84.86-1.68,1.31-2.5h0c3-.42,4.31-2.87,6.65-4.52,1.89-1.33,4-2.4,5.82-3.77,1.5-1.1,2.88-2.37,4.42-3.4a31.45,31.45,0,0,0,3.85-2.52c1.3-1.2,1.92-2.86,3.47-3.84S60.16,26,60.28,24c0-.12-.18-.14-.2,0-.38,2.36-4,2.95-5.48,4.63C53.36,30,52.73,31,51.08,32c-1.09.68-2.18,1.28-3.22,2-3,2.21-6.14,4.2-9.19,6.35-2.16,1.54-3.43,3.86-6.06,4.66,2.77-5,6-9.74,8.35-15l.24-.54a25.26,25.26,0,0,0,2.33-1.79,42.41,42.41,0,0,1,6.59-4.7c3.45-1.91,7.71-4,10.4-7C60.83,17.08,61.19,18.08,61.57,19Zm-3.9,12.59a4,4,0,0,1,.71-1.92c.5-.52,1.32-.4,2-.31A8.71,8.71,0,0,1,57.67,31.63ZM14.51,88.23c1,10.54-1.19,20.93-3.21,31.36-3.66-13.2-4.51-27-4-40.58.3-7.61,1.23-15,2-22.59a59.24,59.24,0,0,1,1.33-9.29c.55-2.1,1.51-4.77,1.49-7a2.74,2.74,0,0,0,1.19-.6c1.31-1.24,1-3.85.7-5.43a.67.67,0,0,0-.15-.29c1.21-1.89,1.59-4.69,2.71-6.64a21.17,21.17,0,0,1,7.2-7.37c6.08-3.67,14.85-6.48,21.48-2.72-5.06,6.64-7.89,15-12.4,22C23.09,54.27,12.77,69.21,14.51,88.23ZM60,14.24c.11.47.23.93.36,1.4-3,3-7.28,5.16-11,7.12A58.49,58.49,0,0,0,42,27.82c.8-1.72,1.73-3.6,2.79-5.41,1.78-1.4,3.5-2.88,5.31-4.24.49-.37,4.53-3,6.83-4.25A9.5,9.5,0,0,1,59,14.5.92.92,0,0,0,60,14.24Zm-4.41-.44a48.46,48.46,0,0,0-6.23,4c-1,.78-2.12,1.56-3.2,2.38C48.65,16.64,51.75,13.79,55.62,13.8ZM11.83,27.49c.67-1.75,2.43-3.34,3.62-4.73a42.23,42.23,0,0,1,9.71-8.68c3.3-2.05,8.22-4.51,12.29-4.59,3.65-.06,8,2.16,11.3,3.64-.75.72-1.45,1.47-2.06,2.18a1.42,1.42,0,0,0-.48-.31c-7.38-2.94-13.55-1.51-20.6,1.74a22.63,22.63,0,0,0-7.84,5.58,27.31,27.31,0,0,0-3.12,4c-.82,1.5-.92,3.51-2,4.87-.23.53-.44,1.06-.63,1.61Q9.4,29.51,11.83,27.49ZM8.15,33.07l.33-.4c.69,2.08,2.27,3.59,4,2.62a6.44,6.44,0,0,1,0,2.28c-.48,1.63-3.53,1.17-4.34.06a4,4,0,0,1-.32-.52s0-.08,0-.12a.35.35,0,0,0-.22-.35A3.49,3.49,0,0,1,8.15,33.07Zm1.43,96.1a.89.89,0,0,0-.3-.24c-1.24-2.14-2.15-6.79-2.61-8.5a118,118,0,0,1-2.82-13.82c-1-7-1-13.92-1.7-20.92C1.34,77.12,3.64,68.59,3.55,60c0-5,1-9.56,1.9-14.41.41-2.15,1.39-4.24,1.94-6.35a3.62,3.62,0,0,0,.93.6,6.62,6.62,0,0,0,2.6.44c-.73,2.56-1.78,5.09-2.49,7.69-1,3.73-1.18,7.64-1.64,11.45C5.87,67,5.59,74.54,4.89,82.1c-.65,7.09.31,14.47.9,21.54a110.17,110.17,0,0,0,2,12c.59,3,.64,5.76,2.56,8.18a.67.67,0,0,0,.14.15C10.15,125.7,9.85,127.43,9.58,129.17ZM175.7,156.54a1.5,1.5,0,0,0,.21,1,60.29,60.29,0,0,0-3.51,11.38c-1.49,7.61-9.6,6.31-16.13,5.8a21.51,21.51,0,0,0,1.91-5.86c0-.23-.36-.28-.4,0a27.35,27.35,0,0,1-2.17,5.86c-.83-.06-1.63-.1-2.38-.1-1.59,0-3.15-.13-4.7-.25,2.82-4.47,7.52-7.7,9.49-12.63a.24.24,0,0,0-.06-.23l-.54-.6c-.19-.21-.47.09-.31.3,1.65,2-7.25,8.83-9.57,13.08-.95-.07-1.9-.12-2.84-.13,1.77-2.65,5.32-6.56,5.7-7.09,1.32-1.87,2.37-4,3.74-5.78,1-1.3,2.42-2,2.7-3.72.06-.38-.51-.54-.58-.16-.3,1.68-1.69,2.19-2.65,3.35s-1.46,2.41-2.26,3.55c-1.89,2.67-4,5.05-6.11,7.58-.22.28-1.08,1.25-1.78,2.28-.36,0-.73,0-1.1.05a81.82,81.82,0,0,1-9.78.32h-1.1c1.92-1.37,3-3.79,4.19-5.72a86.2,86.2,0,0,1,6.79-9c.21-.26-.15-.63-.37-.37-4.14,4.78-7.54,10-11.44,15a.39.39,0,0,0-.05.14c-3.1.13-6.2.64-9.24.47-2.5-.14-4.92-.39-7.39-.36,1.57-2.53,3.77-4.5,5.33-7a31.1,31.1,0,0,1,2.65-4c.91-1.05,1.87-2,2.69-3.17.19-.26-.24-.51-.43-.25-1.13,1.51-2.56,2.75-3.69,4.26-.85,1.12-1.41,2.41-2.26,3.54-1.57,2.09-4.2,3.85-4.77,6.54a.25.25,0,0,0,0,.12c-.62,0-1.24,0-1.86.1-.89.08-1.79.13-2.68.2,2.48-2.16,3.63-5.69,5.39-8.38,1.34-2,2.81-4,4.22-6,.83-1.17,1.78-2.35,1.74-3.84a.18.18,0,0,0-.35,0c0,1.93-2.22,4-3.33,5.43s-2.18,2.79-3.17,4.25c-2,2.88-3.27,6-5.65,8.61q-3,.21-6.06.32a63.27,63.27,0,0,1,5.44-8.6c1.16-1.72,2.51-3.32,3.61-5.08s1.73-3.82,3.13-5.43c.26-.3-.17-.74-.44-.44-1.3,1.45-2,3.23-2.93,4.89-1.23,2.12-2.93,4-4.35,6-1.75,2.47-4.92,5.49-5.52,8.7-1.92.06-3.84.1-5.76.11A47,47,0,0,1,99.73,168c2-2.86,3.83-6.52,6.32-8.95a.27.27,0,0,0-.37-.38,22.74,22.74,0,0,0-2.92,4c-1.31,1.9-2.7,3.77-4.09,5.61-1.64,2.16-4.11,4.42-4.43,7.25q-3.31,0-6.61-.08c.55-1,1.09-2.07,1.74-3,1-1.55,2.29-2.92,3.3-4.49,1.9-3,4.09-5.67,5.66-8.84.21-.42-.42-.79-.63-.37a86,86,0,0,1-6,9.14c-1.67,2.43-4.06,4.72-5,7.57-1.71,0-3.43-.11-5.14-.18l.31-.49c1.1-1.84,2.14-3.7,3.23-5.54,2.13-3.57,4.13-7.21,6-10.93.11-.21-.21-.4-.31-.19-2.29,4.44-5,8.56-7.59,12.78-.89,1.42-1.75,2.88-2.62,4.32-1.32-.06-2.65-.12-4-.2a61.18,61.18,0,0,1,5.39-7.84,72.4,72.4,0,0,0,5.66-8.8c.23-.37-.35-.7-.57-.33-1.07,1.69-2,3.46-3.07,5.15s-2.62,3.33-3.91,5a38.06,38.06,0,0,0-4.52,6.73c-1.41-.09-2.81-.17-4.21-.27,1.62-2.61,3.11-5.35,4.7-8,1-1.68,2.25-3.31,3.11-5.07.75-1.52.93-3.25,2-4.59.31-.38-.22-.93-.54-.55a10,10,0,0,0-1.6,3.21,34.07,34.07,0,0,1-3.48,6.13c-1.65,2.63-4.18,5.68-5.22,8.77-1.28-.09-2.57-.18-3.84-.29l-1.4-.09c.36-.58.66-1.22,1-1.79,1.36-2.34,2.89-4.57,4.36-6.84a47,47,0,0,0,3.9-6.74c.8-1.83,1.13-3.91,2.48-5.45.24-.28-.15-.68-.41-.41a12.22,12.22,0,0,0-2.1,4,43,43,0,0,1-4.37,7.73c-1.59,2.39-3.26,4.73-4.71,7.22a20.48,20.48,0,0,1-1.55,2.19c-2.14-.13-4.32-.22-6.52-.26,1-1.62,1.84-3.23,2.9-4.81,1.39-2.06,2.86-4.06,4.26-6.11,1.54-2.25,2.66-4.77,4.69-6.64.32-.31-.16-.78-.49-.49-2.91,2.6-4.83,6.59-7.12,9.74-1.24,1.71-2.47,3.45-3.62,5.22-.57.88-1,2.1-1.66,3.08a139.14,139.14,0,0,0-14.69.53c-3.2.3-6.2.89-9.43.46-1.4-.19-2.57-.54-3.71-.7a1.54,1.54,0,0,0-1.11-.52l-.7-.06c2.33-3.85,4.12-8,6.37-11.93,2.36-4.11,4.32-8.6,7-12.51.29-.43-.41-.84-.71-.41-2.78,4-4.85,8.67-7.32,12.92-1.26,2.17-2.53,4.35-3.63,6.62a37.46,37.46,0,0,0-2.45,5.21,21.41,21.41,0,0,1-5.84-1.8c1.18-2.86,2.7-5.42,4.06-8.2a56.44,56.44,0,0,1,4.39-8.09c1.54-2.18,2.23-4.71,3.67-6.93,1.19-1.84,2.61-3.69,2.76-5.95,0-.37-.54-.36-.57,0-.21,2.86-2.58,5-3.84,7.38-.64,1.22-1,2.55-1.75,3.74-.82,1.34-1.89,2.51-2.71,3.85-1.51,2.5-2.5,5.27-4,7.79-1.12,1.91-2.42,3.84-2.7,6.06a8,8,0,0,1-2-1.5c-1.7-1.85-2.94-4.83-3.79-7.55.55-5.81,4.63-10.59,7.15-15.56,1.67-3.29,3.32-6.56,5.13-9.78,1.71-3.06,3.75-6,4.8-9.34.12-.39-.5-.56-.63-.17-1.26,3.9-3.86,7.29-5.88,10.83s-3.5,7.17-5.68,10.46a33.41,33.41,0,0,0-4,7.57c-.42,1.19-1.11,2.5-1.46,3.82,0,0,0-.1,0-.15a42.79,42.79,0,0,1-1-8.75,41.45,41.45,0,0,1,3.52-7.34c1.58-3,3.25-5.93,4.9-8.88,3.37-6,6.84-12,10.13-18.09a.18.18,0,1,0-.31-.18c-3.69,6.55-7.89,12.85-11.46,19.45-1.78,3.29-3.78,6.46-5.41,9.83-.46.95-1,1.87-1.44,2.81,0-.87,0-1.73-.08-2.56-.06-1.43-.14-2.87-.18-4.3a.5.5,0,0,0,.49-.2l.54-.42c.32-.14.07-.58-.23-.53h0a27.37,27.37,0,0,1,2.18-4c.94-1.71,2-3.34,3-5,2.08-3.39,4-6.86,6.18-10.2s4.1-6.82,6.37-10.08c.71-1,1.88-1.94,2.4-3.07A22,22,0,0,1,34,104.77c.2-.29-.27-.56-.47-.28-.43.6-1,1.18-1.33,1.81A20.83,20.83,0,0,1,31,109c-.83,1.14-1.77,2.15-2.58,3.33-2.32,3.43-4.49,7-6.76,10.43S17.6,129.6,15.49,133c-1,1.64-1.89,3.36-2.87,5a15.5,15.5,0,0,0-1.19,2.2,34.2,34.2,0,0,1,.44-6.06c1.16-6.75,2.12-13.55,3.71-20.22.67-2.83,1.41-5.69,2-8.56,1.38-2.64,3.57-4.19,5.26-6.57a27.91,27.91,0,0,1,3-4.21c1.15-1.12,2.53-2,3.73-3,.5-.46,1-.94,1.48-1.42l-.63.93c-.71,1,.89,2.25,1.73,1.34a57.19,57.19,0,0,0,8.26-11.92c1.45-1.58,2.85-3.21,4.23-4.87.26-.33-.2-.8-.47-.47-.82,1-1.65,1.93-2.48,2.87,1.25-2.53,2.39-5.13,3.48-7.75.89-.63,1.8-1.24,2.62-2s1.62-1.88,2.49-2.76c.23-.22-.11-.56-.34-.34-1.41,1.38-2.87,2.71-4.35,4,1-2.32,1.87-4.65,2.78-7,.17-.44-.55-.74-.76-.32C46,65.4,44.24,68.77,42.39,72.08,34.49,78.81,26.12,85.15,19.3,93a.27.27,0,0,0,.38.38c5.46-4.73,10.45-10,16-14.63,2.11-1.78,4.08-3.72,6.11-5.59-2.49,4.37-5.14,8.64-7.91,12.85a66.11,66.11,0,0,1-6.63,6.34c-2.68,2.08-3.85,4.72-6.08,7.16-.86,1-2.07,1.84-2.94,2.89a45.84,45.84,0,0,0,.9-10.31c-.35-8.74-1.17-17.6,2.46-25.91,2-4.65,4.55-9,7-13.4a11.37,11.37,0,0,0,1.39-.9C31.68,50.55,33.14,49,35,47.83c3.42-2.16,7-4,10.4-6.22a82.52,82.52,0,0,0,9.11-6.68c.24-.2.5-.4.76-.6A3.54,3.54,0,0,0,57.11,36a11.57,11.57,0,0,1-3.47,2.79,8.34,8.34,0,0,0-2.36,1.51A17.09,17.09,0,0,1,49,42.54c-.71.48-1.45.93-2.15,1.42a34.48,34.48,0,0,1-4.79,2.93c-5.84,2.81-9.7,8.44-15.52,11.17-.21.1-.06.42.15.36,2.74-.77,4.94-2.78,7.08-4.57a54.16,54.16,0,0,1,9.52-6.61,46.92,46.92,0,0,0,4.66-3.08,23.16,23.16,0,0,0,3.32-2.27,14,14,0,0,1,2.17-2.19c.63-.4,1.34-.63,2-1.08a12.24,12.24,0,0,0,2.31-2.35,6.82,6.82,0,0,0,2,.3c-.31,1.25-.6,2.52-.92,3.79-1.72,6.85-4,13.53-6.31,20.18-2.09,5.92-3.71,11.81-6.73,17.36-3.55,6.56-8,12.57-12.14,18.79-.34.51.43,1.08.85.65s1.1-1.13,1.63-1.7a86.5,86.5,0,0,1-5.42,7.14c-2.09,2.78-4.38,5.42-6.45,8.22s-3.54,5.71-5.52,8.42a40.18,40.18,0,0,0-2.68,3.44c-.6,1.06-.6,3-1.72,3.64a.3.3,0,0,0,.23.55A1.77,1.77,0,0,0,16,125.86a9.44,9.44,0,0,0,.32-1.27,10.51,10.51,0,0,1,2.06-3.16c2.11-2.67,3.75-5.64,5.63-8.47,2.08-3.13,4.59-6,6.8-9,2-2.77,4.45-5.4,6.06-8.43a.26.26,0,0,0-.23-.39c8.63-9.42,14.1-19.79,18.21-32A216.5,216.5,0,0,0,61.26,42c.81-3.6,1.3-7.25,2.37-10.79.61-2.05,1.37-3.63,1.44-5.72,2.12,2.29,5.15,3.58,8,5.11l.74.38c-.47.7-1,1.39-1.48,2.05-1.26,1.59-2.71,3-3.88,4.67-1.5,2.15-3,4.29-4.59,6.35-.89,1.13-1.76,2.61-3.05,3.31a.2.2,0,0,0,.15.36c1.14-.3,1.93-1.45,2.64-2.31,1.27-1.51,2.5-3,3.62-4.67,1.58-2.28,3.17-4.43,5-6.56a33.78,33.78,0,0,0,2.13-2.94c.89.45,1.82.88,2.76,1.28-.54.79-1.06,1.6-1.57,2.42a81.54,81.54,0,0,1-5,6.93c-1.74,2.26-3.16,4.75-5.23,6.74-1.43,1.39-2.81,2.49-3.12,4.57a.24.24,0,0,0,.46.13c.72-2.44,2.89-3.67,4.46-5.5,1.76-2.06,3.1-4.44,4.81-6.53,2.17-2.66,3.82-5.71,5.74-8.54a28.53,28.53,0,0,0,3.08,1c-1.57,1.51-2.27,3.32-3.35,5.17-1.46,2.49-3.69,4.37-5.53,6.55-1.48,1.76-3,3.55-4.32,5.4S65,55.29,62.91,56.6c-.21.14-.08.53.19.43a7.13,7.13,0,0,0,3.14-3c1.68-2.37,3.42-4.68,5.24-7,1.63-2,3.54-3.87,5.14-5.94,1.7-2.23,2.45-5,4.48-7a.27.27,0,0,0,.08-.3,17.84,17.84,0,0,0,4.29.56,2.61,2.61,0,0,1,.5.12C77.66,41,70.89,49.92,64.32,58,60.91,62.18,59,67.26,57.6,72.37c-.56,2-2.65,5.48-.2,7.08,1.69,1.1,2.79,0,4-1,3.84-3.29,7-8.47,9.67-12.71a95.9,95.9,0,0,0,7.79-14.5,27.1,27.1,0,0,1,5.9-8.88c1.17-1.19,2.48-2.14,3.59-3.29a2.75,2.75,0,0,0,.81.44,2.85,2.85,0,0,0,1,.11,5.56,5.56,0,0,0,2.48.31,4.13,4.13,0,0,0,2.64-1.37c1.1,2.92,1.46,5.92,2.43,8.87a55.5,55.5,0,0,0,3.36,7.26c3,6.16,3.69,13.1,4.73,19.8a96.67,96.67,0,0,0,1.93,10.59.39.39,0,0,0-.08.1c-1.75,3.16-2.81,6.62-4.56,9.77a50.63,50.63,0,0,0-3.92,8.92c-.09.28.31.43.46.2,1.58-2.43,2.53-5.32,3.8-8a.27.27,0,0,0,.46.18,2.59,2.59,0,0,0,.85-2.33.3.3,0,0,0-.13-.23c1.2-2.5,2.14-5.12,3.42-7.58,1.17,4,2.84,7.17,5.12,5.75,1.17-.73,1.63-2.42,1.79-4.27.09.14.35.15.38,0,.25-1.79,1.39-3.08,2.44-4.47a22.85,22.85,0,0,0,2.35-4.28c.71-1.52,1.54-3,2.31-4.42-.69,3.84-1.71,7.54-2.44,11.44a53.14,53.14,0,0,1-4.81,14.7c-.19.34.28.73.55.43a34.36,34.36,0,0,0,6.17-11.55,91.65,91.65,0,0,0,3.23-15.12c.74-6.19,1.51-13.1.53-19.28-.38-2.38-1.1-4.74-1.65-7.08-.81-3.5-3-7.44-3.43-10.94a.28.28,0,0,0-.55,0c-.42,4.38,1.51,9.77,2.39,14.08a51.82,51.82,0,0,1,1,9.09c-2.06,2.85-4.1,5.73-6,8.71-1.08,1.71-2.34,3.48-3.4,5.34-.31-1.41-.67-2.8-1.07-4.19,1-2.24,2.34-4.35,3.21-6.67a35.85,35.85,0,0,1,2.66-6.4,8.62,8.62,0,0,0,1.66-3.72c0-.47-.7-.47-.75,0-.23,2.07-2,4-2.85,5.89s-1.4,4-2.29,5.92c-.6,1.3-1.36,2.53-2,3.79-.57-1.91-1.17-3.84-1.73-5.84a172.73,172.73,0,0,0-6.32-17.43,48.13,48.13,0,0,0-2.46-4.86c-.18-.34-1-1.58-1.85-2.73,1.65,0,3.32-.17,4.77-.26,4.19-.28,8.84-3,12.52-4.73,5.66-2.67,13.19-9.15,11-16.16,4.12-2.3,7-7.94,12.3-3,2.73,2.55,4.39,7.47,6.18,10.79a114.47,114.47,0,0,1,5.15,10.27c4.4,10.45,10.9,20.12,16.39,29.9,7,12.45,7.66,27.07,7.66,41.06C176.22,122.88,178.47,139.62,175.7,156.54Zm3.09-74.77C177.68,73.67,174,66.07,170,59a68.38,68.38,0,0,0-4.52-6.39c-2.22-3.06-3.66-6.65-5.35-10-3.72-7.36-8-14.43-12.19-21.55-.72-1.24-1.76-3.34-3-5.48,3.78-2.76,7.36-5.34,12.26-5,5.9.35,10.44,5.1,13.6,9.69,6.21,9,10,17.93,11.09,28.85.91,9.18,2.87,17.94,2.59,27.23A57.74,57.74,0,0,1,182,90.21c-.7,2.49-1.22,5-2,7.45A143.47,143.47,0,0,0,178.79,81.77Zm9.44,4.62c-1,5.67-3.23,10.54-5.25,15.86-.86,2.28-2.06,4.7-2.87,7.16,0-1.82-.05-3.63,0-5.45a1.18,1.18,0,0,0,.9-1.11c.13-2.67,2-5.81,2.75-8.36s1.31-5.24,1.93-7.85c1.37-5.89,1.2-12.09,1.17-18.09,0-5.27-1.58-10.55-2.25-15.77-.81-6.38-1.61-12.61-3.7-18.75-1.61-4.69-4.85-9.22-7.59-13.36-2.56-3.87-5.36-7.71-9.43-10.16a13.76,13.76,0,0,0-11.71-1.62c-2.91.75-6.77,2.6-7.83,5.72a26.42,26.42,0,0,0-1.71-2.43,56.36,56.36,0,0,1,5.53-4.53c2.91-1.91,6.65-2,10.05-1.67,7.5.66,12.14,5.65,16.82,10.93,4,4.55,6.61,11.65,8.73,17.43,1.87,5.11,2.11,10.64,3.46,15.92C190.11,61.73,190.22,74.78,188.23,86.39Z"/><path d="M98.55,101.71c-2.45,1.27-7.79.94-10.33.27a20,20,0,0,1-9.78-5.84c-3.75-4-4.93-7.64-5.87-12.2a31.65,31.65,0,0,1,3-5.18c1.87-2.89,3.12-6.05,4.71-9.07,1.86-3.53,4.27-6.74,6.18-10.25.81-1.48,1.39-3.11,2.3-4.52.45-.71,1-2.53,1.46-3a.12.12,0,0,0-.18-.17,9.71,9.71,0,0,0-1.48,2.21c-.94,1.7-1.68,3.49-2.66,5.18-2.24,3.85-5,7.37-7,11.35-1.64,3.24-3.29,6.34-5.23,9.4-.46.73-1,1.54-1.44,2.39-.12-.63-.24-1.26-.36-1.92a.39.39,0,0,0-.36-.28l-.45,0a.34.34,0,0,0-.09.67c-.2,0,0,1.77.35,3.94a4.84,4.84,0,0,0,0,2.24.28.28,0,0,0,.41.16,47.13,47.13,0,0,0,1,4.78,25.09,25.09,0,0,0,6.71,8.45c4.34,3.57,15.29,7.36,20,2.55A.7.7,0,0,0,98.55,101.71Z"/><path d="M156.09,80.6l.31-.69c1.67-3.72,2.67-8.28,5.36-11.47.26-.3-.17-.73-.43-.43-2.21,2.6-3.55,6.25-4.76,9.41-.35.91-.74,1.85-1.15,2.79-.72-.43-1.43-.86-2.07-1.31a13.07,13.07,0,0,1-1.54-1.28,75.17,75.17,0,0,1,6.55-11.31c.33-.47-.44-.91-.76-.45a87.34,87.34,0,0,0-6.23,11l-.11.21a15.56,15.56,0,0,1-2.22-3.2c.55-1,1.11-2.11,1.63-3.19,1.81-3.76,3-7.79,4.67-11.59.13-.29-.3-.54-.43-.25-1.91,4.18-3.16,8.66-5.36,12.71-.3.54-.58,1.08-.86,1.63-1-2-1.78-4.2-2.85-6.26,1.93-5,3.95-10,6-15,.14-.34-.45-.59-.6-.25-1.84,4.27-3.83,8.48-5.54,12.8-.18.45-.33.91-.5,1.36a17.41,17.41,0,0,0-1.09-1.65c-.23-.3-.73,0-.52.3a14.93,14.93,0,0,1,1.22,2.43c-.47,1.34-.92,2.69-1.34,4.07-.5,1.66-1.38,3.25-1.9,4.92-.39-.73-.78-1.45-1.13-2.17a40,40,0,0,1-1.72-4c.48-1.17,1.17-2.28,1.73-3.41A61.55,61.55,0,0,0,143,60.33c.79-2.14,1.8-4.21,2.55-6.36s.73-4.36,1.92-6.31c.18-.29-.28-.56-.46-.27-1.09,1.77-1.19,3.73-1.81,5.68-.79,2.54-2.09,5-3.06,7.52a66.76,66.76,0,0,1-3.29,7q-.27.5-.51,1a61.56,61.56,0,0,1-1.9-6.86c.06-.19.14-.37.2-.56a65.58,65.58,0,0,1,3.48-7.92c2.21-4.54,4.08-9.23,4.58-14.29,0-.41-.59-.41-.63,0-.64,6.13-3.41,11.44-6,16.92a46.69,46.69,0,0,0-1.91,4.5c-.41-2-.77-4.08-1.1-6.13,1.11-2.73,2.08-5.52,3.12-8.2.94-2.45,2.16-4.81,3-7.27.56-1.56.85-3.14,1.49-4.68a4.75,4.75,0,0,0,.56-2.28.3.3,0,0,0-.59,0c0,1.23-.84,2.46-1.25,3.61A37,37,0,0,1,139.88,40c-1.15,2.28-2,4.65-3,7-.74,1.75-1.45,3.52-2.16,5.29-.47-3.06-.93-6.11-1.48-9.1.33-.87.68-1.72,1.09-2.55.91-1.81,2.09-3.47,2.87-5.35,1.07-2.6,1.26-5.29,3.12-7.56.26-.32-.19-.77-.46-.45a13.18,13.18,0,0,0-2.43,5,38.25,38.25,0,0,1-3.52,7.6q-.52,1-1,2.07a.5.5,0,0,0-.81.47c.06.39.11.78.16,1.17-.33.89-.63,1.78-.92,2.68-.84,2.58-2.2,5-2.91,7.57-.06.23.27.38.38.16a33.39,33.39,0,0,0,2.7-5.78c.32-1,.64-2,1-3,.42,3.37.69,6.74,1,10.09-.74,1.89-1.47,3.79-2.17,5.69-.06.18.21.29.31.13a41.26,41.26,0,0,0,2-3.9c.25,2.35.55,4.68,1,7a11.8,11.8,0,0,0-1.22,4c0,.25.33.26.41,0,.34-.92.71-1.8,1.07-2.69a42.84,42.84,0,0,0,4.16,12A40.67,40.67,0,0,0,148,89a36.06,36.06,0,0,0,7.16,4.36c2.31,1.13,4.35,1.14,6.76,2,.62.23.87-.65.42-1-3.26-2.4-7.11-4-10.48-6.31a27.21,27.21,0,0,0,3.23-5.33C158,84.42,161,85.79,164,87.23a.52.52,0,0,0,.62-.81C162.5,84,159.11,82.34,156.09,80.6Zm-13.81-4c1-2.81,2-5.61,3.05-8.39.79,2.35,1.26,4.78,2.27,7l-1.11,2.19a12.69,12.69,0,0,0-1.55,3.67,46,46,0,0,1-2.65-4l.12-.14A.19.19,0,0,0,142.28,76.61Zm3.06,5a.84.84,0,0,0,.31-.85,14.28,14.28,0,0,1,1-2.25c.26-.51.53-1,.77-1.54.16-.33.34-.65.5-1a11.76,11.76,0,0,0,2.23,3c-1.05,1.93-2,4-1.75,6.11A33.8,33.8,0,0,1,145.34,81.62Zm6.1,6.11-.49-.35a25.83,25.83,0,0,1-2.11-1.83.21.21,0,0,0,.09-.13,45,45,0,0,1,2-5.71,29,29,0,0,0,3.55,2.59A49.85,49.85,0,0,1,151.44,87.73Z"/><path d="M128.7,49.31c.35-3.69-.62-7.11-1.37-10.69-.71-3.4-2.47-6.35-3.19-9.68,0-.08-.14-.06-.15,0-.19,3,1.11,5.74,1.6,8.69.65,4,1.88,7.77,2.42,11.75C128.07,49.82,128.67,49.67,128.7,49.31Z"/><path d="M132.61,35a3.87,3.87,0,0,0,1.31-2.55,4.17,4.17,0,0,0-.41-1.28,6.71,6.71,0,0,0-.55-1.39,2.37,2.37,0,0,0-2.62-1,3.53,3.53,0,0,0-1.9,1.61c-1.09,1-.93,3.29-.38,4.46C129,37,131.3,36.36,132.61,35Zm-2.68-4.67c.72-.35,1.48-.37,1.8.63a5.6,5.6,0,0,1,.47,1.56c0,.41-.56,1-.84,1.23s-.76.76-1.11.71-.21-.5-.25-.75a8.66,8.66,0,0,1,0-3A.68.68,0,0,0,129.93,30.31Z"/><path d="M21.06,70.52C23,69,25.12,67.7,27,66.11s3.39-3.17,5.26-4.63,3.31-2.9,5-4.38a75.07,75.07,0,0,1,6.17-4.62c3.3-2.38,6.48-4.9,9.86-7.16,1.74-1.16,4.15-2.63,4.27-4.94,0-.21-.34-.26-.37-.05-.42,3-4.76,4.6-7,6.15-3.66,2.56-7.23,5.28-10.88,7.87-3.17,2.25-5.94,5.07-9,7.51-1.64,1.3-3,2.86-4.65,4.19a45.23,45.23,0,0,0-4.89,4.17C20.57,70.42,20.85,70.69,21.06,70.52Z"/><path d="M37.43,63.49c5.16-3.85,10.49-7.69,15.11-12.18.29-.28-.14-.71-.43-.44C42.2,60.2,29.36,66.59,20.69,77.28a.32.32,0,0,0,.45.45c2.61-2.11,4.91-4.65,7.4-6.9Q32.82,67,37.43,63.49Z"/><path d="M52.84,56.46c-5.45,3.4-9.63,8.29-14.5,12.4-2.55,2.16-5,4.44-7.47,6.64-2.77,2.43-5.71,4.61-8,7.49a.32.32,0,0,0,.45.45c5.08-4.37,9.92-9,15-13.35s9.29-9.39,14.91-12.94C53.67,56.87,53.27,56.19,52.84,56.46Z"/><path d="M15.4,119c.27-1.74,1.92-3.67,2.67-5.24A14.25,14.25,0,0,1,21,109c2.47-2.34,3.89-5.12,5.8-7.89,2.17-3.14,5-5.72,7.45-8.6A22.69,22.69,0,0,0,36.81,89a35.44,35.44,0,0,1,3.53-4.88c.16-.21-.12-.5-.3-.3a23.92,23.92,0,0,0-2.93,3.43,34.94,34.94,0,0,1-3.87,5.5c-2.6,2.86-5.44,5.49-7.57,8.75a40.68,40.68,0,0,1-3.79,5.59c-1,1.09-2.31,1.91-3.12,3.19-1.22,2-1.91,4.23-3.06,6.22-.56,1-1,1.41-.7,2.51C15.06,119.15,15.37,119.18,15.4,119Z"/><path d="M31.43,134c.53,1.26-1.09,2.77-1.55,3.79-.54,1.22-.52,2.6-1.11,3.82-.71,1.46-1.81,2.7-2.54,4.17s-1.62,3.14-2.5,4.7-1.36,3-2.09,4.5-1.77,2.95-2.61,4.44c-1.25,2.21-2.94,4.74-2.71,7.37,0,.33.55.46.61.08.63-3.59,2.81-6.68,4.59-9.8.92-1.6,1.51-3.3,2.3-5,.9-1.87,2-3.61,2.86-5.51.72-1.55,1.66-2.84,2.47-4.33s.67-3,1.31-4.41c.49-1.1,2.11-2.73,1.33-4C31.68,133.62,31.34,133.74,31.43,134Z"/><path d="M46.85,148.32c.17-.31-.3-.58-.47-.28-2.53,4.38-4.64,9-7.23,13.32-2.4,4-5.39,7.32-7.12,11.72-.13.35.39.53.58.24,1.34-2.08,2.2-4.38,3.66-6.4a62.08,62.08,0,0,0,3.78-5.58C42.47,157.09,44.46,152.6,46.85,148.32Z"/><path d="M53.31,146.75a.27.27,0,0,0-.54,0c0,2.83-2,5.35-3.43,7.65s-2.56,4.46-3.82,6.74c-2,3.58-5.5,7-5.64,11.31,0,.37.51.41.61.09,1.57-4.91,4.71-9,7-13.52C49.47,155.25,53.49,151.22,53.31,146.75Z"/><path d="M54.69,157.53c1.42-2,2-4.35,3.55-6.29.24-.29-.17-.7-.41-.41a27.68,27.68,0,0,0-2.93,5c-1,1.91-2.74,3.13-3.78,5s-2.25,3.88-3.49,5.79-2.68,3.74-3.35,5.79c-.07.22.25.34.37.15,2.24-3.72,4.86-7.18,6.9-11C52.38,159.94,53.68,158.93,54.69,157.53Z"/><path d="M62.73,151.57a111.89,111.89,0,0,1-6.92,11.52c-2.12,3.17-4.9,6.26-5.92,10a.3.3,0,0,0,.55.23c3.93-7.36,9.16-13.9,12.89-21.4C63.53,151.53,62.94,151.17,62.73,151.57Z"/><path d="M124.09,165a37.45,37.45,0,0,0-2.88,3.88c-1,1.54-1.6,3.36-2.76,4.76a.38.38,0,0,0,.53.54c1.18-1.07,1.63-2.49,2.44-3.82a36.59,36.59,0,0,1,3.35-4.68C125.16,165.18,124.48,164.5,124.09,165Z"/><path d="M134.19,159.37c-1.86,2-2.89,4.53-4.23,6.91-1.74,3.1-4.37,5.37-6.46,8.19-.18.24.19.45.38.3a27.39,27.39,0,0,0,6.24-7.15c1.57-2.57,2.51-5.5,4.53-7.78C134.94,159.52,134.47,159.05,134.19,159.37Z"/><path d="M149.17,160.07a24,24,0,0,0-4.34,5.14,13.75,13.75,0,0,1-2.25,3.21,4.07,4.07,0,0,0-1.43,1.78c-.16.46.53.72.77.32.56-.89,1.47-1.37,2.14-2.15a14.4,14.4,0,0,0,1.4-2.44,21.52,21.52,0,0,1,4.2-5.37C150,160.26,149.5,159.78,149.17,160.07Z"/><path d="M76.69,63.45a58.18,58.18,0,0,1,5.93-8.66,11.59,11.59,0,0,0,2.79-6.55c0-.32-.47-.31-.49,0-.25,3.51-2.77,5.69-4.76,8.3a70.13,70.13,0,0,0-5.06,8.23c-1.57,2.76-3.11,5.58-4.75,8.3-.72,1.21-1.68,2.2-2.49,3.34a28.3,28.3,0,0,0-2,4,.38.38,0,0,0,.06.44l.5.45c.22.2.59-.05.42-.32-.65-1.08,1.81-4.16,2.4-4.9a19.75,19.75,0,0,0,2.06-3C73,69.83,74.92,66.68,76.69,63.45Z"/><path d="M83.28,73.23c-1.27,3-3.26,5.58-4.71,8.46a63.85,63.85,0,0,0-3.69,8.59c-.11.33.37.5.55.23,1.91-2.84,2.86-6.13,4.46-9.12,1.41-2.62,3.2-5.08,4.34-7.83s2.32-5.11,3.39-7.71,3.09-5.35,3.58-8.24c.07-.43-.56-.61-.65-.18-.55,2.64-2.42,4.92-3.46,7.4C85.9,67.67,84.5,70.4,83.28,73.23Z"/><path d="M83.11,87.46c-.43,1-.81,2-1.19,3a28,28,0,0,1-2.84-4,.6.6,0,0,0-1,.61,42.86,42.86,0,0,0,3.19,5.19A22.56,22.56,0,0,1,79.37,96a.42.42,0,0,0,.07.51L80,97a.3.3,0,0,0,.48-.36c-.36-.65,1.12-2.77,1.44-3.52a17.91,17.91,0,0,0,4.18,3.76,6.59,6.59,0,0,0-.38,2c0,.2.3.31.39.11.24-.56.51-1.1.79-1.64A20.27,20.27,0,0,0,90.12,99a4.47,4.47,0,0,0-.21,2.18c0,.31.48.19.51-.07a7,7,0,0,1,.5-1.84,16.87,16.87,0,0,0,8.66.39c.64-.13.4-1-.14-1l-1.81-.26h0c.84-2.94,2.94-5.16,4.39-7.79s2.49-5.35,4.25-7.77c.36-.49-.46-1-.81-.47-2,2.76-3.13,6-4.93,8.89-1.4,2.27-3.31,4.27-3.57,7A38.51,38.51,0,0,1,92,97c.29-.52.59-1,.84-1.56.9-1.86,1.66-3.77,2.65-5.59,1.83-3.38,4-6.56,5.7-10,.25-.48-.48-.91-.73-.43-2.07,4.12-4.8,7.87-6.82,12C92.83,93.2,92,95,91.15,96.71a24.36,24.36,0,0,1-3.21-1.41,17.83,17.83,0,0,0,.89-1.94,26,26,0,0,1,1.48-4.06c.61-1,1.25-2,1.79-3.09A79.78,79.78,0,0,1,99,74.07c.17-.24-.23-.54-.4-.31A82.19,82.19,0,0,0,91.1,86.18a36,36,0,0,0-3,6A17.13,17.13,0,0,1,87,94.75a20.61,20.61,0,0,1-4.39-3.55c.31-.87.63-1.75,1-2.61a66.28,66.28,0,0,1,4.88-9.1c1.62-2.73,3.16-5.51,4.8-8.24a14,14,0,0,0,1.32-2.8c.43-1.3,1.22-2.41,1.56-3.72a.26.26,0,0,0-.51-.14c-.33,1.12-1.15,2-1.54,3.12a17.29,17.29,0,0,1-1.93,4c-1.73,2.68-3.18,5.5-4.9,8.19A53.2,53.2,0,0,0,83.11,87.46Z"/><path d="M109.88,95.91a60.4,60.4,0,0,0-3.51,8c-.07.25.26.36.4.17,1.63-2.32,2.54-5.21,3.65-7.8C110.58,95.86,110.05,95.54,109.88,95.91Z"/></g></g></svg>